<svg xmlns="http://www.w3.org/2000/svg" viewBox="0 0 893 893"><defs><style>.cls-1{fill:#7483ff;}</style></defs><title>Asset 12</title><g id="Layer_2" data-name="Layer 2"><g id="Layer_1-2" data-name="Layer 1"><path class="cls-1" d="M711.5,0h-530C81.42,0,0,81.42,0,181.5v530C0,811.58,81.42,893,181.5,893h530C811.58,893,893,811.58,893,711.5v-530C893,81.42,811.58,0,711.5,0ZM818,711.5A106.63,106.63,0,0,1,711.5,818h-530A106.63,106.63,0,0,1,75,711.5v-530A106.63,106.63,0,0,1,181.5,75h530A106.63,106.63,0,0,1,818,181.5Z"/><polygon class="cls-1" points="484 222.94 409 222.94 409 409 222.94 409 222.94 484 409 484 409 670.06 484 670.06 484 484 670.06 484 670.06 409 484 409 484 222.94"/></g></g></svg>