<svg xmlns="http://www.w3.org/2000/svg" viewBox="0 0 31 31"><defs><style>.cls-1{fill:#7483ff;}</style></defs><title>Asset 1</title><g id="Layer_2" data-name="Layer 2"><g id="Layer_1-2" data-name="Layer 1"><path class="cls-1" d="M25.23,0H5.77A5.78,5.78,0,0,0,0,5.77V25.23A5.78,5.78,0,0,0,5.77,31H25.23A5.78,5.78,0,0,0,31,25.23V5.77A5.78,5.78,0,0,0,25.23,0ZM28,25.23A2.77,2.77,0,0,1,25.23,28H5.77A2.77,2.77,0,0,1,3,25.23V5.77A2.77,2.77,0,0,1,5.77,3H25.23A2.77,2.77,0,0,1,28,5.77Z"/><polygon class="cls-1" points="17 7.85 14 7.85 14 14 7.85 14 7.85 17 14 17 14 23.15 17 23.15 17 17 23.15 17 23.15 14 17 14 17 7.85"/></g></g></svg>