<svg xmlns="http://www.w3.org/2000/svg" viewBox="0 0 864.67 863.03"><defs><style>.cls-1{fill:#7483ff;}</style></defs><title>Asset 3</title><g id="Layer_2" data-name="Layer 2"><g id="Layer_1-2" data-name="Layer 1"><path class="cls-1" d="M794,423.85l70.72-44.64c-13.74-53.6-13.19-51.49-26.93-105.09L754.26,269l-50.81-74.27,25.49-79.65-88.19-63.2-67.23,49.75L486.86,77.4,455.19,0,347,8.28,327.49,89.6l-82,37.14-74-38.94L94,163.68l37.31,74.85L92.36,319.66,10.63,337.41c-5.42,55.08-5.21,52.9-10.63,108l76.7,33.35c9.22,36,13.11,51.16,22.34,87.16L47.84,632l61.26,89.55,80.19-23.75,73.14,52.41,3.29,83.57L370.21,863l46.16-69.74,89.72-6.87,56.24,61.91,98.82-44.78-9.46-83.1L716,657.52l82.87,11.27c23.94-49.9,23-47.92,46.92-97.82L785.13,513.4C788.77,476.41,790.3,460.84,794,423.85ZM432.34,614.51a183,183,0,0,1-183-183c0-101.06,81.93-183,183-183s183,81.94,183,183A183,183,0,0,1,432.34,614.51Z"/></g></g></svg>