<svg xmlns="http://www.w3.org/2000/svg" xmlns:xlink="http://www.w3.org/1999/xlink" viewBox="0 0 944.98 1154.24"><defs><style>.cls-1{fill:url(#linear-gradient);}.cls-2{fill:url(#linear-gradient-2);}</style><linearGradient id="linear-gradient" x1="-136.92" y1="-77.07" x2="964.52" y2="1024.38" gradientTransform="translate(176.47 5.32) rotate(9.57)" gradientUnits="userSpaceOnUse"><stop offset="0" stop-color="#23f2ff"/><stop offset="0.15" stop-color="#2ae9ff"/><stop offset="0.39" stop-color="#3ccfff"/><stop offset="0.7" stop-color="#5aa6ff"/><stop offset="0.99" stop-color="#7b78ff"/></linearGradient><linearGradient id="linear-gradient-2" x1="-107.83" y1="-106.16" x2="993.62" y2="995.29" xlink:href="#linear-gradient"/></defs><title>Asset 1</title><g id="Layer_2" data-name="Layer 2"><g id="Layer_1-2" data-name="Layer 1"><path class="cls-1" d="M540.22,105.28q16.72,2.81,33.09,6.93L457.51,799.39q-16.8-1.47-33.54-4.29C215.42,760,71.82,576.63,103.87,386.45S331.66,70.13,540.22,105.28m16.51-98C293.73-37,47.1,125.33,5.88,369.94S144.45,848.76,407.46,893.08a517.12,517.12,0,0,0,134.17,5.07L685.16,46.48A516.63,516.63,0,0,0,556.73,7.29Z"/><path class="cls-2" d="M824.84,604.9l-75.56,448.39L681,1052l73.88-438.44,70-8.66M945,489.9,669.17,524,563.82,1149.19l269.21,5L945,489.9Z"/></g></g></svg>