<svg xmlns="http://www.w3.org/2000/svg" viewBox="0 0 998.13 907.88"><defs><style>.cls-1{fill:#7483ff;}</style></defs><title>Asset 13</title><g id="Layer_2" data-name="Layer 2"><g id="Layer_1-2" data-name="Layer 1"><path class="cls-1" d="M498.35,907.88,91.66,501.19l1.42-1.42-8.85-8.85A287.57,287.57,0,1,1,490.92,84.23l8.85,8.85,7.44-7.44a287.59,287.59,0,0,1,406.69,0h0a287.58,287.58,0,0,1,0,406.7ZM197.73,501.19,498.36,801.82,860.87,439.31c82.88-82.89,82.88-217.75,0-300.63s-217.75-82.89-300.63,0l-60.47,60.47-61.88-61.89c-82.88-82.88-217.75-82.88-300.63,0a212.58,212.58,0,0,0,0,300.63l61.89,61.88Z"/></g></g></svg>