<svg xmlns="http://www.w3.org/2000/svg" viewBox="0 0 972.85 877.46"><defs><style>.cls-1{fill:#7483ff;}</style></defs><title>Asset 5</title><g id="Layer_2" data-name="Layer 2"><g id="Layer_1-2" data-name="Layer 1"><path class="cls-1" d="M485.72,877.46,96.8,488.54l1.42-1.41L80.55,469.45a275,275,0,1,1,388.9-388.9l17.68,17.67L503.4,82a275,275,0,0,1,388.9,0h0a275,275,0,0,1,0,388.91ZM167.53,488.55,485.72,806.74,857,435.51c87.73-87.72,87.73-230.47,0-318.19s-230.47-87.73-318.2,0l-51.62,51.61-53-53c-87.73-87.73-230.47-87.73-318.2,0a225,225,0,0,0,0,318.2l53,53Z"/></g></g></svg>