<svg xmlns="http://www.w3.org/2000/svg" viewBox="0 0 23.32 21.6"><defs><style>.cls-1{fill:#fffff4;}</style></defs><title>Asset 1</title><g id="Layer_2" data-name="Layer 2"><g id="Layer_1-2" data-name="Layer 1"><path class="cls-1" d="M22.94,19.68,16.46,14A9,9,0,1,0,3.07,15.76,8.9,8.9,0,0,0,9.59,18a9.08,9.08,0,0,0,2.09-.39A8.72,8.72,0,0,0,15,15.67l6.47,5.66A1.1,1.1,0,0,0,23,21.22,1.08,1.08,0,0,0,22.94,19.68ZM9.45,15.78A6.81,6.81,0,0,1,3.87,4.51a6.81,6.81,0,0,1,10.25,9A6.77,6.77,0,0,1,9.45,15.78Z"/></g></g></svg>